<svg width="25" height="25" viewBox="0 0 25 25" fill="none" xmlns="http://www.w3.org/2000/svg">
<path d="M12.5879 2.91675C7.08789 2.91675 2.58789 7.41675 2.58789 12.9167C2.58789 18.4167 7.08789 22.9167 12.5879 22.9167C18.0879 22.9167 22.5879 18.4167 22.5879 12.9167C22.5879 7.41675 18.0879 2.91675 12.5879 2.91675ZM16.7879 11.2167L11.9879 16.0167C11.5879 16.4167 10.9879 16.4167 10.5879 16.0167L8.38789 13.8167C7.98789 13.4167 7.98789 12.8167 8.38789 12.4167C8.78789 12.0167 9.38789 12.0167 9.78789 12.4167L11.2879 13.9167L15.3879 9.81675C15.7879 9.41675 16.3879 9.41675 16.7879 9.81675C17.1879 10.2167 17.1879 10.8167 16.7879 11.2167Z" fill="url(#paint0_linear_321_523)"/>
<defs>
<linearGradient id="paint0_linear_321_523" x1="3.04943" y1="4.79175" x2="24.2395" y2="7.25601" gradientUnits="userSpaceOnUse">
<stop stop-color="#D79AF5"/>
<stop offset="1" stop-color="#9393F5"/>
</linearGradient>
</defs>
</svg>
