<svg width="54" height="41" viewBox="0 0 54 41" fill="none" xmlns="http://www.w3.org/2000/svg">
<path d="M45.175 3.82585C41.85 2.27585 38.25 1.15085 34.5 0.500847C34.4672 0.499796 34.4345 0.505966 34.4042 0.518924C34.374 0.531883 34.347 0.551314 34.3251 0.575848C33.8751 1.40085 33.35 2.47585 33 3.30085C29.0225 2.70085 24.9775 2.70085 21 3.30085C20.65 2.45085 20.125 1.40085 19.65 0.575848C19.625 0.525848 19.55 0.500847 19.475 0.500847C15.725 1.15085 12.15 2.27585 8.80005 3.82585C8.77505 3.82585 8.75005 3.85085 8.72505 3.87585C1.92505 14.0508 0.0500489 23.9508 0.975049 33.7508C0.975049 33.8008 1.00005 33.8508 1.05005 33.8758C5.55005 37.1758 9.87505 39.1758 14.15 40.5008C14.225 40.5258 14.3 40.5008 14.325 40.4508C15.325 39.0758 16.225 37.6258 17 36.1008C17.05 36.0008 17 35.9008 16.9 35.8758C15.475 35.3258 14.125 34.6758 12.8 33.9258C12.7 33.8758 12.7 33.7258 12.775 33.6508C13.05 33.4508 13.325 33.2258 13.6 33.0258C13.65 32.9758 13.725 32.9758 13.775 33.0008C22.375 36.9258 31.6501 36.9258 40.1501 33.0008C40.2001 32.9758 40.2751 32.9758 40.3251 33.0258C40.6001 33.2508 40.875 33.4508 41.15 33.6758C41.25 33.7508 41.25 33.9008 41.125 33.9508C39.825 34.7258 38.4501 35.3508 37.0251 35.9008C36.9251 35.9258 36.9 36.0508 36.925 36.1258C37.725 37.6508 38.6251 39.1008 39.6001 40.4758C39.6751 40.5008 39.75 40.5258 39.825 40.5008C44.125 39.1758 48.45 37.1758 52.95 33.8758C53 33.8508 53.025 33.8008 53.025 33.7508C54.125 22.4258 51.2 12.6008 45.275 3.87585C45.25 3.85085 45.225 3.82585 45.175 3.82585ZM18.3001 27.7758C15.7251 27.7758 13.575 25.4008 13.575 22.4758C13.575 19.5508 15.6751 17.1758 18.3001 17.1758C20.9501 17.1758 23.05 19.5758 23.025 22.4758C23.025 25.4008 20.9251 27.7758 18.3001 27.7758ZM35.725 27.7758C33.15 27.7758 31 25.4008 31 22.4758C31 19.5508 33.1 17.1758 35.725 17.1758C38.375 17.1758 40.475 19.5758 40.45 22.4758C40.45 25.4008 38.375 27.7758 35.725 27.7758Z" fill="url(#paint0_linear_140_464)"/>
<defs>
<linearGradient id="paint0_linear_140_464" x1="1.96614" y1="4.25171" x2="57.0581" y2="12.6582" gradientUnits="userSpaceOnUse">
<stop stop-color="#D79AF5"/>
<stop offset="1" stop-color="#9393F5"/>
</linearGradient>
</defs>
</svg>
