<svg width="28" height="37" viewBox="0 0 28 37" fill="none" xmlns="http://www.w3.org/2000/svg">
<path d="M15.736 12.9456H24.9026L15.736 2.77061V12.9456ZM4.0693 -0.00439453H17.4026L27.4026 11.0956V33.2956C27.4026 34.2769 27.0514 35.218 26.4263 35.9119C25.8012 36.6058 24.9533 36.9956 24.0693 36.9956H4.0693C3.18524 36.9956 2.33739 36.6058 1.71227 35.9119C1.08715 35.218 0.735962 34.2769 0.735962 33.2956V3.69561C0.735962 1.64211 2.2193 -0.00439453 4.0693 -0.00439453ZM19.0693 29.5956V25.8956H4.0693V29.5956H19.0693ZM24.0693 22.1956V18.4956H4.0693V22.1956H24.0693Z" fill="url(#paint0_linear_623_199)"/>
<defs>
<linearGradient id="paint0_linear_623_199" x1="1.35135" y1="3.46435" x2="29.7872" y2="5.8477" gradientUnits="userSpaceOnUse">
<stop stop-color="#D79AF5"/>
<stop offset="1" stop-color="#9393F5"/>
</linearGradient>
</defs>
</svg>
