<svg width="42" height="41" viewBox="0 0 42 41" fill="none" xmlns="http://www.w3.org/2000/svg">
<path d="M21 0.166748C18.2641 0.166748 15.555 0.705618 13.0274 1.75259C10.4998 2.79956 8.20312 4.33414 6.26857 6.26869C2.36156 10.1757 0.166626 15.4747 0.166626 21.0001C0.166626 30.2084 6.14579 38.0209 14.4166 40.7917C15.4583 40.9584 15.7916 40.3126 15.7916 39.7501V36.2292C10.0208 37.4792 8.79163 33.4376 8.79163 33.4376C7.83329 31.0209 6.47913 30.3751 6.47913 30.3751C4.58329 29.0834 6.62496 29.1251 6.62496 29.1251C8.70829 29.2709 9.81246 31.2709 9.81246 31.2709C11.625 34.4376 14.6875 33.5001 15.875 33.0001C16.0625 31.6459 16.6041 30.7292 17.1875 30.2084C12.5625 29.6876 7.70829 27.8959 7.70829 19.9584C7.70829 17.6459 8.49996 15.7917 9.85413 14.3126C9.64579 13.7917 8.91663 11.6251 10.0625 8.81258C10.0625 8.81258 11.8125 8.25008 15.7916 10.9376C17.4375 10.4792 19.2291 10.2501 21 10.2501C22.7708 10.2501 24.5625 10.4792 26.2083 10.9376C30.1875 8.25008 31.9375 8.81258 31.9375 8.81258C33.0833 11.6251 32.3541 13.7917 32.1458 14.3126C33.5 15.7917 34.2916 17.6459 34.2916 19.9584C34.2916 27.9167 29.4166 29.6667 24.7708 30.1876C25.5208 30.8334 26.2083 32.1042 26.2083 34.0417V39.7501C26.2083 40.3126 26.5416 40.9792 27.6041 40.7917C35.875 38.0001 41.8333 30.2084 41.8333 21.0001C41.8333 18.2642 41.2944 15.5551 40.2475 13.0275C39.2005 10.4999 37.6659 8.20324 35.7314 6.26869C33.7968 4.33414 31.5002 2.79956 28.9725 1.75259C26.4449 0.705618 23.7358 0.166748 21 0.166748Z" fill="url(#paint0_linear_404_201)"/>
<defs>
<linearGradient id="paint0_linear_404_201" x1="1.12816" y1="3.97837" x2="45.2446" y2="9.23618" gradientUnits="userSpaceOnUse">
<stop stop-color="#D79AF5"/>
<stop offset="1" stop-color="#9393F5"/>
</linearGradient>
</defs>
</svg>
