<svg width="1125" height="144" viewBox="0 0 1125 144" fill="none" xmlns="http://www.w3.org/2000/svg">
<path fillRule="evenodd" clipRule="evenodd" d="M218.491 0.201172C186.582 0.201172 162.293 30.0082 162.293 72.1005C162.293 114.193 186.582 143.798 218.491 143.798C243.098 143.798 263.101 127.284 270.562 98.2823H245.003C239.764 111.977 230.239 118.624 218.333 118.624C198.965 118.624 185.153 100.498 185.153 72.1005C185.153 43.5019 198.965 25.5774 218.333 25.5774C230.239 25.5774 239.764 32.2235 245.003 45.7172H270.562C263.101 16.9173 243.098 0.201172 218.491 0.201172ZM72.5499 1.61084H94.7752V142.388H72.5499L22.2253 45.9185V142.388H0V1.61084H22.2253L72.5499 98.2822V1.61084ZM117.421 142.288V1.71167H139.646V142.288H117.421ZM362.9 142.288V82.4725H315.433V142.288H293.208V1.71167H315.433V59.5131H362.9V1.71167H385.126V142.288H362.9ZM472.066 24.5703V1.61084H407.771V142.388H472.066V119.429H429.997V82.1703H467.304V59.815H429.997V24.5703H472.066Z" fill="url(#paint0_linear_153_1566)"/>
<path d="M494.712 24.4699V1.71191H575.994V24.4699H546.466V142.288H524.24V24.4699H494.712Z" fill="white"/>
<path d="M662.935 1.61133V24.5708H620.866V59.8155H658.172V82.1708H620.866V119.43H662.935V142.389H598.64V1.61133H662.935Z" fill="white"/>
<path d="M758.131 1.61133H780.356V142.389H758.131L707.806 45.919V142.389H685.581V1.61133H707.806L758.131 98.2827V1.61133Z" fill="white"/>
<path d="M883.331 101.908C883.331 124.062 869.361 144 844.119 144C821.1 144 803.32 128.694 803.002 102.109H826.815C827.45 113.387 833.324 120.839 843.643 120.839C854.121 120.839 860.312 113.79 860.312 103.72C860.312 73.3091 803.161 91.6363 803.32 40.6825C803.32 15.3063 819.513 0 842.373 0C865.075 0 880.632 14.7021 882.061 40.0783H857.613C857.137 30.814 851.263 23.5636 841.738 23.3622C833.007 22.9594 826.498 28.3972 826.498 39.8769C826.498 68.0727 883.331 52.3636 883.331 101.908Z" fill="white"/>
<path d="M1019.49 71.8993C1019.49 114.193 994.243 144 962.81 144C931.536 144 905.977 114.193 905.977 71.8993C905.977 29.807 931.536 0 962.81 0C994.402 0 1019.49 29.807 1019.49 71.8993ZM928.837 71.8993C928.837 100.498 942.649 118.825 962.81 118.825C982.813 118.825 996.625 100.498 996.625 71.8993C996.625 43.3007 982.813 25.3762 962.81 25.3762C942.649 25.3762 928.837 43.3007 928.837 71.8993Z" fill="white"/>
<path d="M1100.87 45.4154C1100.87 32.9287 1095.31 25.0741 1082.93 25.0741H1064.36V66.3609H1082.93C1095.31 66.3609 1100.87 58.1035 1100.87 45.4154ZM1042.13 1.71191H1083.72C1110.39 1.71191 1123.73 21.2476 1123.73 44.8112C1123.73 61.9301 1116.27 79.2504 1098.49 85.2923L1125 142.288H1099.28L1074.83 87.5077H1064.36V142.288H1042.13V1.71191Z" fill="white"/>
<defs>
<linearGradient id="paint0_linear_153_1566" x1="10.8938" y1="13.6634" x2="453.172" y2="182.749" gradientUnits="userSpaceOnUse">
<stop stopColor="#D79AF5"/>
<stop offset="1" stopColor="#9393F5"/>
</linearGradient>
</defs>
</svg>
